# xmcd CD database file
#
# Track frame offsets:
#	150
#	8177
#	22319
#	31085
#	43092
#	60913
#	78320
#	95430
#	110957
#	126227
#	138931
#
# Disc length: 2176 seconds
#
# Revision: 1
# Processed by: cddbd v1.5.2PL0 Copyright (c) Steve Scherf et al.
# Submitted via: CDex 1.51
#
DISCID=8e087e0b
DTITLE=The Havenots - Never Say Goodnight
DYEAR=2005
DGENRE=Alternative
TTITLE0=Underwater Overland [all M/D][Sophia Marshall vo, ag]
TTITLE1=Flyers [Liam Dullaghan vo,a+eg, space mandln]
TTITLE2=New Lace Dress [Adam Ellis eg prod]
TTITLE3=Papercuts [Ross Johan Andic d]
TTITLE4=Undecorated [Ewan Kristoff Andic fretls b]
TTITLE5=Sweetest Feeling [Chris Wills k,tamb,mandln]
TTITLE6=Up Like Stairways  
TTITLE7=Ghost 
TTITLE8=My Heart Is Like A Day [David Nagler k,b,mdln]
TTITLE9=A Tiny Taste Of Death
TTITLE10=Let's Just Start Again 
EXTD=YEAR: 2005
EXTT0=
EXTT1=
EXTT2=
EXTT3=
EXTT4=
EXTT5=
EXTT6=
EXTT7=
EXTT8=
EXTT9=
EXTT10=
PLAYORDER=
